{"accessors":[{"bufferView":0,"byteOffset":0,"componentType":5126,"count":4,"max":[0.01,0.01,-0.01],"min":[-0.01,0.0,-0.01],"type":"VEC3"},{"bufferView":0,"byteOffset":48,"componentType":5126,"count":4,"max":[0.01,0.01,0.01],"min":[0.01,0.0,-0.01],"type":"VEC3"},{"bufferView":0,"byteOffset":96,"componentType":5126,"count":4,"max":[0.01,0.01,0.01],"min":[-0.01,0.0,0.01],"type":"VEC3"},{"bufferView":0,"byteOffset":144,"componentType":5126,"count":4,"max":[-0.01,0.01,0.01],"min":[-0.01,0.0,-0.01],"type":"VEC3"},{"bufferView":0,"byteOffset":192,"componentType":5126,"count":4,"max":[0.01,0.0,0.01],"min":[-0.01,0.0,-0.01],"type":"VEC3"},{"bufferView":0,"byteOffset":240,"componentType":5126,"count":4,"max":[0.01,0.01,0.01],"min":[-0.01,0.01,-0.01],"type":"VEC3"},{"bufferView":0,"byteOffset":288,"componentType":5126,"count":507,"max":[0.008000000000000002,0.020000000000000005,0.007999999999999999],"min":[-0.008000000000000002,0.004000000000000001,-0.008000000000000006],"type":"VEC3"},{"bufferView":1,"byteOffset":0,"componentType":5126,"count":4,"type":"VEC3"},{"bufferView":1,"byteOffset":48,"componentType":5126,"count":4,"type":"VEC3"},{"bufferView":1,"byteOffset":96,"componentType":5126,"count":4,"type":"VEC3"},{"bufferView":1,"byteOffset":144,"componentType":5126,"count":4,"type":"VEC3"},{"bufferView":1,"byteOffset":192,"componentType":5126,"count":4,"type":"VEC3"},{"bufferView":1,"byteOffset":240,"componentType":5126,"count":4,"type":"VEC3"},{"bufferView":1,"byteOffset":288,"componentType":5126,"count":507,"type":"VEC3"},{"bufferView":2,"byteOffset":0,"componentType":5123,"count":6,"type":"SCALAR"},{"bufferView":2,"byteOffset":12,"componentType":5123,"count":6,"type":"SCALAR"},{"bufferView":2,"byteOffset":24,"componentType":5123,"count":6,"type":"SCALAR"},{"bufferView":2,"byteOffset":36,"componentType":5123,"count":6,"type":"SCALAR"},{"bufferView":2,"byteOffset":48,"componentType":5123,"count":6,"type":"SCALAR"},{"bufferView":2,"byteOffset":60,"componentType":5123,"count":6,"type":"SCALAR"},{"bufferView":2,"byteOffset":72,"componentType":5123,"count":2934,"type":"SCALAR"}],"asset":{"generator":"Open CASCADE Technology 7.6 [dev.opencascade.org]","version":"2.0"},"bufferViews":[{"buffer":0,"byteLength":6372,"byteOffset":0,"byteStride":12,"target":34962},{"buffer":0,"byteLength":6372,"byteOffset":6372,"byteStride":12,"target":34962},{"buffer":0,"byteLength":5940,"byteOffset":12744,"target":34963}],"buffers":[{"byteLength":18684,"uri":"Unnamed.bin"}],"materials":[{"name":"mat_0","pbrMetallicRoughness":{"baseColorFactor":[0.4019778072834015,0.0,0.21223075687885285,1.0]},"doubleSided":true},{"name":"mat_1","pbrMetallicRoughness":{"baseColorFactor":[0.0,1.0,0.21223075687885285,0.6100000143051148],"metallicFactor":0.0},"doubleSided":true,"alphaMode":"BLEND"}],"meshes":[{"name":"Square","primitives":[{"attributes":{"NORMAL":7,"POSITION":0},"indices":14,"material":0,"mode":4},{"attributes":{"NORMAL":8,"POSITION":1},"indices":15,"material":0,"mode":4},{"attributes":{"NORMAL":9,"POSITION":2},"indices":16,"material":0,"mode":4},{"attributes":{"NORMAL":10,"POSITION":3},"indices":17,"material":0,"mode":4},{"attributes":{"NORMAL":11,"POSITION":4},"indices":18,"material":0,"mode":4},{"attributes":{"NORMAL":12,"POSITION":5},"indices":19,"material":0,"mode":4}]},{"name":"Sphere","primitives":[{"attributes":{"NORMAL":13,"POSITION":6},"indices":20,"material":1,"mode":4}]}],"nodes":[{"children":[1,2],"name":"Unnamed"},{"mesh":0,"name":"Square"},{"mesh":1,"name":"Sphere"}],"scene":0,"scenes":[{"nodes":[0]}]}