<?xml version="1.0" standalone="no"?>
<!DOCTYPE svg PUBLIC "-//W3C//DTD SVG 20010904//EN"
 "http://www.w3.org/TR/2001/REC-SVG-20010904/DTD/svg10.dtd">
<svg version="1.0" xmlns="http://www.w3.org/2000/svg"
 width="700.000000pt" height="700.000000pt" viewBox="0 0 700.000000 700.000000"
 preserveAspectRatio="xMidYMid meet">
<metadata>
Created by potrace 1.14, written by Peter Selinger 2001-2017
</metadata>
<g transform="translate(0.000000,700.000000) scale(0.100000,-0.100000)"
fill="#000000" stroke="none">
<path d="M3250 6920 c-692 -54 -1314 -296 -1870 -726 -149 -115 -461 -427
-574 -574 -402 -520 -635 -1087 -713 -1730 -23 -199 -23 -581 0 -780 78 -642
312 -1212 713 -1730 114 -148 426 -460 574 -574 528 -409 1104 -641 1775 -718
164 -18 560 -15 735 6 645 78 1211 310 1730 712 148 114 460 426 574 574 410
530 641 1102 718 1775 16 142 16 548 0 690 -76 672 -307 1243 -718 1775 -114
148 -426 460 -574 574 -447 346 -923 564 -1460 670 -263 52 -651 76 -910 56z
m610 -95 c637 -70 1203 -304 1732 -715 122 -94 440 -417 541 -548 113 -148
211 -297 227 -346 16 -48 8 -151 -13 -193 -56 -108 -184 -163 -301 -129 -74
22 -114 59 -197 183 -403 600 -1030 1028 -1739 1187 -215 48 -344 60 -615 60
-288 0 -431 -18 -689 -83 -771 -197 -1430 -716 -1797 -1415 -93 -178 -146
-221 -274 -221 -80 0 -129 20 -181 72 -49 49 -67 90 -72 168 -4 69 -3 71 56
190 149 295 360 584 607 830 515 514 1176 845 1887 945 192 27 189 26 458 28
151 1 283 -3 370 -13z m-2153 -2331 c54 -26 86 -76 91 -144 l4 -57 -198 -389
c-184 -363 -195 -387 -158 -355 21 19 248 235 502 480 255 245 478 454 495
463 81 44 190 8 234 -76 37 -71 30 -93 -166 -511 -101 -214 -190 -403 -199
-420 -20 -40 -13 -34 562 525 257 250 484 465 505 477 42 26 105 30 154 9 71
-29 119 -126 98 -196 -6 -19 -125 -275 -266 -569 -140 -294 -254 -535 -253
-536 2 -1 416 289 921 645 506 356 930 653 943 659 34 15 98 14 137 -3 72 -29
117 -121 97 -195 -5 -21 -158 -267 -339 -545 -181 -278 -332 -509 -335 -514
-3 -5 63 12 147 39 83 26 177 55 207 64 49 13 59 21 84 62 97 162 364 453 546
597 260 205 560 369 864 470 156 52 213 47 278 -21 59 -62 62 -125 13 -215
-88 -158 -130 -279 -118 -342 5 -25 7 -26 82 -26 60 0 84 -5 115 -23 102 -58
121 -178 41 -266 -42 -46 -88 -61 -189 -61 -247 0 -403 166 -394 419 2 50 2
91 0 91 -10 0 -140 -71 -216 -118 -158 -96 -317 -222 -456 -360 l-135 -134 72
-18 c127 -33 223 -98 288 -195 78 -118 96 -267 46 -395 -82 -216 -372 -358
-621 -306 -101 22 -170 57 -246 128 -75 71 -118 150 -135 251 -6 37 -15 67
-19 67 -4 0 -60 -18 -125 -40 -218 -76 -379 -171 -541 -321 -69 -64 -104 -90
-130 -95 -121 -23 -214 53 -214 174 0 54 -27 9 468 770 84 128 146 230 139
225 -6 -4 -361 -253 -787 -553 -426 -300 -797 -561 -824 -580 -91 -62 -194
-50 -254 28 -23 30 -27 45 -27 101 1 65 4 73 193 465 106 220 191 400 190 401
-2 2 -236 -224 -522 -501 -285 -278 -531 -511 -547 -519 -112 -58 -261 44
-247 168 4 33 288 661 386 852 15 29 14 29 -4 15 -10 -8 -252 -239 -537 -513
-285 -274 -532 -507 -550 -517 -38 -24 -116 -26 -156 -6 -68 36 -111 118 -97
187 3 16 148 308 322 650 174 341 315 622 313 623 -2 2 -195 -83 -429 -190
-234 -106 -439 -196 -456 -200 -79 -15 -172 47 -192 129 -20 76 16 160 81 194
18 9 327 151 687 314 702 320 700 319 777 283z m4678 -2058 c58 -24 100 -63
131 -118 23 -43 29 -65 29 -119 0 -63 -4 -75 -72 -210 -466 -933 -1371 -1604
-2403 -1784 -361 -63 -808 -61 -1165 6 -900 168 -1683 685 -2186 1447 -125
187 -140 255 -87 370 37 77 140 142 228 142 43 0 118 -26 155 -54 19 -15 77
-91 129 -169 477 -719 1224 -1173 2078 -1262 721 -75 1457 143 2038 605 124
98 338 310 434 430 105 132 234 331 314 487 101 196 151 240 285 242 32 1 73
-6 92 -13z"/>
<path d="M5205 3061 c-27 -5 -32 -12 -45 -64 -16 -66 -8 -93 41 -130 86 -63
289 2 289 92 0 73 -64 112 -183 110 -39 -1 -85 -4 -102 -8z"/>
</g>
</svg>
