<?xml version="1.0" standalone="no"?>
<!DOCTYPE svg PUBLIC "-//W3C//DTD SVG 20010904//EN"
 "http://www.w3.org/TR/2001/REC-SVG-20010904/DTD/svg10.dtd">
<svg version="1.0" xmlns="http://www.w3.org/2000/svg"
 width="700.000000pt" height="700.000000pt" viewBox="0 0 700.000000 700.000000"
 preserveAspectRatio="xMidYMid meet">
<metadata>
Created by potrace 1.14, written by Peter Selinger 2001-2017
</metadata>
<g transform="translate(0.000000,700.000000) scale(0.100000,-0.100000)"
fill="#000000" stroke="none">
<path d="M3320 6924 c-476 -29 -930 -149 -1347 -357 -347 -174 -613 -366 -894
-646 -558 -558 -890 -1244 -985 -2041 -24 -197 -24 -563 0 -760 93 -776 415
-1456 951 -2009 489 -504 1130 -848 1825 -980 394 -75 869 -74 1260 0 693 133
1293 450 1791 948 497 497 816 1100 948 1791 75 392 75 868 0 1260 -109 570
-343 1074 -712 1535 -102 126 -372 397 -497 497 -527 420 -1118 667 -1773 743
-131 15 -452 26 -567 19z m560 -99 c941 -110 1773 -599 2335 -1370 125 -172
158 -238 158 -314 0 -144 -116 -261 -258 -261 -102 0 -165 44 -256 179 -125
184 -198 271 -368 441 -246 245 -462 399 -766 546 -252 121 -501 200 -769 244
-894 146 -1804 -148 -2446 -790 -199 -199 -350 -403 -500 -675 -82 -150 -96
-166 -164 -200 -70 -35 -153 -35 -224 1 -133 66 -180 216 -113 359 79 170 246
430 397 620 113 141 358 386 499 499 549 438 1209 694 1910 740 110 7 438 -4
565 -19z m-2172 -2329 c60 -31 94 -88 94 -157 0 -42 -22 -92 -197 -436 l-198
-388 70 65 c38 36 264 252 501 480 238 228 447 423 464 433 40 21 119 22 157
2 69 -35 112 -128 92 -195 -6 -20 -94 -213 -196 -430 -102 -216 -184 -395
-182 -396 2 -2 237 224 522 501 286 277 534 511 552 520 39 19 115 19 151 1
66 -35 110 -116 98 -182 -4 -19 -121 -274 -262 -566 -140 -293 -253 -536 -252
-539 2 -4 415 283 918 638 503 355 925 649 938 654 35 14 110 11 140 -5 65
-34 108 -113 98 -181 -5 -32 -83 -159 -341 -555 -184 -283 -333 -515 -332
-516 2 -2 59 14 127 35 69 21 158 48 197 60 l73 22 52 77 c122 183 341 417
528 567 177 143 441 301 650 390 142 61 315 115 367 115 67 0 122 -33 151 -90
36 -72 31 -99 -50 -257 -69 -137 -72 -146 -72 -215 l-1 -73 87 -5 c95 -6 125
-20 164 -78 47 -69 38 -157 -21 -217 -46 -45 -98 -58 -215 -53 -81 3 -104 9
-161 36 -79 38 -140 100 -177 180 -23 49 -27 73 -30 174 l-4 117 -41 -20
c-216 -111 -453 -285 -632 -463 l-130 -131 49 -8 c141 -23 282 -130 347 -262
32 -67 34 -74 34 -180 0 -108 -1 -113 -38 -187 -67 -137 -206 -237 -379 -272
-95 -20 -153 -20 -241 -1 -189 40 -338 193 -369 378 -13 78 1 76 -162 20 -192
-66 -368 -173 -516 -310 -103 -96 -114 -103 -180 -103 -72 0 -124 31 -157 94
-20 38 -20 114 0 152 8 16 135 214 282 439 329 503 320 489 303 479 -7 -4
-375 -263 -818 -574 -443 -312 -816 -573 -829 -580 -35 -18 -135 -9 -168 16
-48 36 -66 70 -71 132 -4 58 -4 59 187 457 105 219 189 400 187 403 -3 2 -234
-219 -513 -491 -280 -272 -525 -502 -543 -512 -47 -24 -135 -17 -179 15 -40
28 -71 91 -71 145 0 31 43 132 199 463 l200 423 -52 -48 c-29 -26 -267 -255
-531 -508 -263 -253 -495 -470 -515 -482 -80 -50 -193 -18 -239 67 -44 83 -47
74 302 760 175 342 316 623 314 625 -2 1 -199 -87 -438 -196 -303 -138 -446
-199 -470 -199 -81 1 -158 65 -175 147 -10 50 12 114 54 152 26 24 224 119
701 336 595 271 671 303 718 304 29 1 65 -5 80 -13z m4703 -2072 c117 -58 168
-197 120 -324 -33 -87 -154 -302 -255 -455 -134 -202 -247 -338 -430 -520
-171 -169 -316 -289 -508 -416 -963 -638 -2171 -732 -3222 -252 -240 110 -501
271 -711 439 -141 113 -386 358 -499 499 -121 151 -280 392 -296 449 -58 206
162 393 355 302 64 -30 85 -54 187 -206 391 -587 972 -1002 1647 -1176 535
-138 1076 -119 1594 56 692 234 1249 708 1596 1355 103 194 110 204 152 232
85 56 181 62 270 17z"/>
<path d="M5213 3063 c-37 -5 -56 -40 -57 -108 -2 -100 120 -143 250 -89 113
47 108 161 -7 194 -33 10 -121 11 -186 3z"/>
</g>
</svg>
